<svg width="33" height="33" viewBox="0 0 33 33" fill="none" xmlns="http://www.w3.org/2000/svg">
<path d="M30.375 0C31.4927 0.000104896 32.3994 0.907655 32.3994 2.02539V30.375C32.3994 31.4927 31.4927 32.4003 30.375 32.4004H22.2764V20.25H26.3262L27.3389 15.1875H22.2764V13.1621C22.2765 11.1375 23.2909 10.1251 25.3135 10.125H27.3389V5.0625H23.2891C19.5681 5.0625 17.2139 7.9799 17.2139 12.1504V15.1875H13.1641V20.25H17.2139V32.4004H2.02441C0.906796 32.4002 3.5603e-06 31.4927 0 30.375V2.02539C0 0.907721 0.906793 0.000211376 2.02441 0H30.375Z" fill="#25133C"/>
</svg>
