<svg width="33" height="33" viewBox="0 0 33 33" fill="none" xmlns="http://www.w3.org/2000/svg">
<g clip-path="url(#clip0_1529_468)">
<path d="M16.1172 7.77539C11.5446 7.77539 7.75586 11.4988 7.75586 16.1367C7.75586 20.7746 11.4792 24.498 16.1172 24.498C20.7551 24.498 24.4784 20.7093 24.4784 16.1367C24.4784 11.5641 20.6897 7.77539 16.1172 7.77539ZM16.1172 21.4931C13.1776 21.4931 10.7607 19.0762 10.7607 16.1367C10.7607 13.1972 13.1776 10.7802 16.1172 10.7802C19.0567 10.7802 21.4736 13.1972 21.4736 16.1367C21.4736 19.0762 19.0567 21.4931 16.1172 21.4931Z" fill="#25133C"/>
<path d="M24.8026 9.47035C25.8488 9.47035 26.6969 8.62222 26.6969 7.576C26.6969 6.52977 25.8488 5.68164 24.8026 5.68164C23.7563 5.68164 22.9082 6.52977 22.9082 7.576C22.9082 8.62222 23.7563 9.47035 24.8026 9.47035Z" fill="#25133C"/>
<path d="M29.7031 2.67823C28.0047 0.914516 25.5878 0 22.8442 0H9.38779C3.70473 0 -0.0839844 3.78871 -0.0839844 9.47177V22.8629C-0.0839844 25.6718 0.830532 28.0887 2.65956 29.8524C4.42327 31.5508 6.77489 32.4 9.45311 32.4H22.7789C25.5878 32.4 27.9394 31.4855 29.6378 29.8524C31.4015 28.154 32.316 25.7371 32.316 22.9282V9.47177C32.316 6.72823 31.4015 4.37661 29.7031 2.67823ZM29.4418 22.9282C29.4418 24.9532 28.7233 26.5863 27.5475 27.6968C26.3717 28.8073 24.7386 29.3952 22.7789 29.3952H9.45311C7.49343 29.3952 5.86037 28.8073 4.68456 27.6968C3.50876 26.521 2.92085 24.8879 2.92085 22.8629V9.47177C2.92085 7.5121 3.50876 5.87903 4.68456 4.70323C5.79505 3.59274 7.49343 3.00484 9.45311 3.00484H22.9096C24.8692 3.00484 26.5023 3.59274 27.6781 4.76855C28.7886 5.94435 29.4418 7.57742 29.4418 9.47177V22.9282Z" fill="#25133C"/>
</g>
<defs>
<clipPath id="clip0_1529_468">
<rect width="32.4" height="32.4" fill="white"/>
</clipPath>
</defs>
</svg>
