<svg width="33" height="33" viewBox="0 0 33 33" fill="none" xmlns="http://www.w3.org/2000/svg">
<g clip-path="url(#clip0_1529_473)">
<path d="M28.3496 0.00195312C30.5848 0.00195312 32.4003 1.81656 32.4004 4.05176V28.3516C32.4004 30.5868 30.5849 32.4023 28.3496 32.4023H4.0498C1.81461 32.4022 0 30.5868 0 28.3516V4.05176C0.000101471 1.81663 1.81467 0.00205893 4.0498 0.00195312H28.3496ZM3.86328 27.6367H9.29004V11.3125H3.86328V27.6367ZM22.6064 10.9277C19.728 10.9278 18.4388 12.5111 17.7168 13.623V11.3115H12.291C12.363 12.8427 12.291 27.6357 12.291 27.6357H17.7168V18.5195C17.7168 18.0316 17.7517 17.5431 17.8955 17.1943C18.2871 16.2199 19.1808 15.2109 20.6797 15.2109C22.6419 15.2111 23.4277 16.7081 23.4277 18.9014V27.6357H28.8535V18.2744C28.8535 13.2603 26.1764 10.9277 22.6064 10.9277ZM6.61328 3.43945C4.75667 3.43945 3.54313 4.65998 3.54297 6.25977C3.54297 7.82609 4.71923 9.08104 6.54102 9.08105H6.57617C8.46843 9.08102 9.64648 7.82608 9.64648 6.25977C9.61122 4.6601 8.46857 3.43963 6.61328 3.43945Z" fill="#25133C"/>
</g>
<defs>
<clipPath id="clip0_1529_473">
<rect width="32.4" height="32.4" fill="white"/>
</clipPath>
</defs>
</svg>
