<svg xmlns="http://www.w3.org/2000/svg" width="222.505" height="91.482" viewbox="0 0 222.505 91.482" class="graphic-logo">
  <defs><clipPath id="a"><path d="M0 841.89h595.28V0H0v841.89z"/></clipPath></defs>
  <g clip-path="url(#a)" transform="matrix(1.25 0 0 -1.25 -260.69 572.18)"><path d="M302.48 437.793v7.773c0 2.716-.656 5.402-4.143 5.402-3.315 0-3.973-2.886-3.973-5.402v-7.773h-.714v7.773c0 2.716-.657 5.402-4.144 5.402-1.8 0-3.887-1.372-3.887-3.487v-9.687h-.716v13.66h.715v-2.2c1.056 1.915 2.742 2.43 3.97 2.43 1.974 0 3.345-.715 4.432-3.23 1.028 2.287 2.4 3.23 4.315 3.23 3.686 0 4.858-2.63 4.858-6.117v-7.773h-.714zM315.683 445.366c-1.23-.657-1.6-.686-2.43-.686h-2.514c-1.86 0-3.774-.943-3.774-3.172 0-2.315 2.058-3.287 4.03-3.287 1.915 0 3.258.658 4.687 2.087v5.06zm.515-7.717l-.43 1.8c-1.657-1.43-2.97-1.943-4.772-1.943-2.687 0-4.8 1.343-4.8 4 0 2.487 2.085 3.86 4.543 3.86h2.142c.858 0 1.944 0 2.8.914v1.63c0 2-2.143 3.115-3.8 3.115-1.63 0-3.458-.6-4.173-2.315l-.687.228c.887 2 2.6 2.8 4.945 2.8 2.2 0 4.458-1.514 4.458-3.743v-8.145l.4-2.03-.628-.17zM327.514 450.54c-.6.2-1.286.37-1.943.37-2.315 0-4.572-1.686-4.572-3.915v-9.203h-.772v13.662h.772v-2.573c1.486 2.26 3.2 2.745 4.573 2.745.8 0 1.6-.114 2.344-.372l-.4-.714zM331.4 451.454h.77v-13.66h-.77v13.66zm.4 4.43c-.515 0-.915.428-.915.943 0 .514.4.914.914.914.513 0 .942-.4.942-.913 0-.515-.43-.944-.943-.944M350.604 437.793h-.972l-4.544 12.918-4.516-12.917h-1l-4.2 13.66h.77l3.944-12.86 4.516 12.86h1l4.516-12.89 4 12.89h.744l-4.258-13.66zM366.35 445.366c-1.23-.657-1.6-.686-2.43-.686h-2.515c-1.858 0-3.773-.943-3.773-3.172 0-2.315 2.058-3.287 4.03-3.287 1.915 0 3.258.658 4.687 2.087v5.06zm.514-7.717l-.43 1.8c-1.657-1.43-2.97-1.943-4.772-1.943-2.687 0-4.8 1.343-4.8 4 0 2.487 2.085 3.86 4.543 3.86h2.143c.858 0 1.944 0 2.8.914v1.63c0 2-2.143 3.115-3.8 3.115-1.63 0-3.458-.6-4.173-2.315l-.686.228c.886 2 2.6 2.8 4.944 2.8 2.2 0 4.458-1.514 4.458-3.743v-8.145l.4-2.03-.628-.17zM370.892 440.736v17.005h.743v-17.004c0-.943.4-2.03 2-2.2v-.715c-1.943.144-2.743 1.287-2.743 2.916M385.41 445.366c-1.23-.657-1.6-.686-2.43-.686h-2.514c-1.858 0-3.773-.943-3.773-3.172 0-2.315 2.058-3.287 4.03-3.287 1.915 0 3.258.658 4.687 2.087v5.06zm.515-7.717l-.43 1.8c-1.657-1.43-2.97-1.943-4.772-1.943-2.687 0-4.8 1.343-4.8 4 0 2.487 2.085 3.86 4.543 3.86h2.143c.857 0 1.943 0 2.8.914v1.63c0 2-2.144 3.115-3.8 3.115-1.63 0-3.46-.6-4.174-2.315l-.686.228c.887 2 2.6 2.8 4.945 2.8 2.2 0 4.458-1.514 4.458-3.743v-8.145l.4-2.03-.628-.17zM295.565 411.317h-.714v7.86c0 3.086-1.028 5.344-4.743 5.344-2 0-4.46-1.485-4.46-3.686v-9.517h-.742v19.95h.743v-8.575c1.2 1.915 2.915 2.543 4.46 2.543 3.942 0 5.457-2.372 5.457-6.06v-7.858zM304.423 424.492c-3.4 0-4.83-2.2-5.06-5.602h9.518c-.056 3.06-1.113 5.602-4.457 5.602m5.202-6.316h-10.26c.028-3.8 1.314-6.402 5.344-6.402 1.628 0 2.857.37 3.828 1.458l.572-.458c-1.086-1.2-2.458-1.715-4.4-1.715-4.517 0-6.146 2.914-6.146 7.087 0 3.973 1.515 7.06 5.86 7.06 3.686 0 5.2-2.744 5.2-6.174v-.857zM321.684 418.89c-1.23-.656-1.6-.685-2.43-.685h-2.514c-1.858 0-3.773-.943-3.773-3.172 0-2.315 2.058-3.287 4.03-3.287 1.915 0 3.258.657 4.687 2.086v5.06zm.515-7.716l-.43 1.8c-1.658-1.428-2.972-1.942-4.773-1.942-2.687 0-4.8 1.343-4.8 4 0 2.487 2.085 3.86 4.543 3.86h2.143c.858 0 1.944 0 2.8.914v1.628c0 2-2.143 3.116-3.8 3.116-1.63 0-3.458-.6-4.173-2.315l-.686.228c.887 2 2.6 2.8 4.945 2.8 2.2 0 4.457-1.514 4.457-3.743v-8.145l.4-2.03-.628-.17zM326.227 414.26v17.006h.743V414.26c0-.942.4-2.028 2-2.2v-.714c-1.943.143-2.743 1.286-2.743 2.915M333.856 424.264v-9.975c0-1.63.886-2.258 2.23-2.258v-.715c-2.03 0-3 .944-3 2.972v9.974h-2.26v.714h2.26v4.23h.77v-4.23h2.4v-.714h-2.4zM350.375 411.317h-.714v7.86c0 3.086-1.03 5.344-4.744 5.344-2 0-4.458-1.485-4.458-3.686v-9.517h-.743v19.95h.743v-8.575c1.2 1.915 2.915 2.543 4.46 2.543 3.942 0 5.457-2.372 5.457-6.06v-7.858zM285.39 398.503h.773v-13.66h-.772v13.66zm.4 4.43c-.514 0-.914.428-.914.943 0 .514.4.914.915.914s.944-.4.944-.914c0-.515-.43-.944-.943-.944M301.337 384.841l-.714.002v7.773c0 3.116-1.03 5.402-4.744 5.402-2.545 0-4.46-1.743-4.46-3.83v-9.346l-.743.002v13.66h.743v-2.344c1.314 2.03 2.944 2.573 4.46 2.573 3.942 0 5.457-2.4 5.457-6.116v-7.773zM305.537 398.503h.772v-13.66h-.773v13.66zm.4 4.43c-.514 0-.914.428-.914.943 0 .514.4.914.914.914.515 0 .943-.4.943-.914 0-.515-.428-.944-.943-.944M312.71 397.788v-9.975c0-1.63.886-2.257 2.23-2.257v-.715c-2.03 0-3 .945-3 2.973v9.975h-2.26v.714h2.26v4.23h.77v-4.23h2.4v-.714h-2.4zM319.054 398.503h.772v-13.66h-.772v13.66zm.4 4.43c-.515 0-.914.428-.914.943 0 .514.4.914.914.914s.943-.4.943-.914c0-.515-.43-.944-.943-.944M333.115 392.415c-1.23-.657-1.6-.686-2.43-.686h-2.514c-1.857 0-3.772-.944-3.772-3.173 0-2.315 2.058-3.287 4.03-3.287 1.915 0 3.258.657 4.687 2.086v5.06zm.515-7.717l-.43 1.8c-1.657-1.428-2.97-1.942-4.772-1.942-2.687 0-4.8 1.343-4.8 4 0 2.487 2.085 3.86 4.543 3.86h2.144c.858 0 1.944 0 2.8.914v1.628c0 2-2.143 3.116-3.8 3.116-1.63 0-3.458-.6-4.173-2.315l-.685.227c.887 2 2.6 2.8 4.945 2.8 2.2 0 4.458-1.514 4.458-3.743V386.9l.4-2.03-.628-.172zM339.543 397.788v-9.975c0-1.63.886-2.257 2.23-2.257v-.715c-2.03 0-3 .945-3 2.973v9.975h-2.26l.002.714h2.258v4.23h.77v-4.23h2.4l.002-.714h-2.4zM345.887 398.503h.772v-13.66h-.773v13.66zm.4 4.43c-.514 0-.914.428-.914.943 0 .514.4.914.915.914.514 0 .942-.4.942-.914 0-.515-.428-.944-.942-.944M356.09 384.841l-1.058.002-5.115 13.66h.77l4.888-12.975 4.888 12.975h.8l-5.173-13.66zM368.55 398.017c-3.4 0-4.83-2.2-5.06-5.602h9.518c-.057 3.06-1.114 5.602-4.458 5.602m5.2-6.316h-10.26c.03-3.8 1.316-6.4 5.346-6.4 1.63 0 2.858.37 3.83 1.457l.57-.458c-1.085-1.2-2.457-1.716-4.4-1.716-4.516 0-6.145 2.915-6.145 7.088 0 3.973 1.516 7.06 5.86 7.06 3.687 0 5.2-2.744 5.2-6.174v-.857z" fill="#2b2b2a" class='graphic-logo-text' /><path d="M264.31 388.3v60.33L238.21 388.3l-26.096 60.33V388.3M212.116 418.37h52.193M238.213 448.628v-60.704" fill="none" stroke="#2b2b2a" stroke-width=".693" stroke-miterlimit="10"/><path d="M215.33 448.628c0-1.776-1.438-3.215-3.214-3.215-1.775 0-3.215 1.44-3.215 3.215 0 1.776 1.44 3.215 3.216 3.215 1.776 0 3.215-1.44 3.215-3.215" fill="#fff"/><path d="M215.33 448.628c0-1.776-1.438-3.215-3.214-3.215-1.775 0-3.215 1.44-3.215 3.215 0 1.776 1.44 3.215 3.216 3.215 1.776 0 3.215-1.44 3.215-3.215z" fill="none" stroke="#2b2b2a" stroke-width=".693" stroke-miterlimit="10"/><path d="M241.388 448.628c0-1.754-1.422-3.175-3.175-3.175-1.754 0-3.175 1.42-3.175 3.175 0 1.754 1.42 3.175 3.175 3.175 1.753 0 3.175-1.42 3.175-3.175" fill="#fff"/><path d="M241.388 448.628c0-1.754-1.422-3.175-3.175-3.175-1.754 0-3.175 1.42-3.175 3.175 0 1.754 1.42 3.175 3.175 3.175 1.753 0 3.175-1.42 3.175-3.175z" fill="none" stroke="#2b2b2a" stroke-width=".693" stroke-miterlimit="10"/><path d="M267.484 448.628c0-1.754-1.422-3.175-3.175-3.175-1.755 0-3.176 1.42-3.176 3.175 0 1.754 1.42 3.175 3.175 3.175 1.752 0 3.174-1.42 3.174-3.175" fill="#fff"/><path d="M267.484 448.628c0-1.754-1.422-3.175-3.175-3.175-1.755 0-3.176 1.42-3.176 3.175 0 1.754 1.42 3.175 3.175 3.175 1.752 0 3.174-1.42 3.174-3.175z" fill="none" stroke="#2b2b2a" stroke-width=".693" stroke-miterlimit="10"/><path d="M215.29 418.464c0-1.754-1.42-3.175-3.174-3.175-1.754-.002-3.175 1.42-3.175 3.173 0 1.754 1.422 3.175 3.176 3.175 1.753 0 3.175-1.42 3.175-3.174" fill="#fff"/><path d="M215.29 418.464c0-1.754-1.42-3.175-3.174-3.175-1.754-.002-3.175 1.42-3.175 3.173 0 1.754 1.422 3.175 3.176 3.175 1.753 0 3.175-1.42 3.175-3.174z" fill="none" stroke="#2b2b2a" stroke-width=".693" stroke-miterlimit="10"/><path d="M241.388 418.464c0-1.754-1.422-3.175-3.175-3.175-1.754-.002-3.175 1.42-3.175 3.173 0 1.754 1.42 3.175 3.175 3.175 1.753 0 3.175-1.42 3.175-3.174" fill="#fff"/><path d="M241.388 418.464c0-1.754-1.422-3.175-3.175-3.175-1.754-.002-3.175 1.42-3.175 3.173 0 1.754 1.42 3.175 3.175 3.175 1.753 0 3.175-1.42 3.175-3.174z" fill="none" stroke="#2b2b2a" stroke-width=".693" stroke-miterlimit="10"/><path d="M267.484 418.464c0-1.754-1.422-3.175-3.175-3.175-1.755-.002-3.176 1.42-3.176 3.173 0 1.754 1.42 3.175 3.175 3.175 1.752 0 3.174-1.42 3.174-3.174" fill="#fff"/><path d="M267.484 418.464c0-1.754-1.422-3.175-3.175-3.175-1.755-.002-3.176 1.42-3.176 3.173 0 1.754 1.42 3.175 3.175 3.175 1.752 0 3.174-1.42 3.174-3.174z" fill="none" stroke="#2b2b2a" stroke-width=".693" stroke-miterlimit="10"/><path d="M215.29 388.3c0-1.755-1.42-3.176-3.174-3.176s-3.175 1.42-3.175 3.175c0 1.753 1.422 3.174 3.176 3.174 1.753 0 3.175-1.42 3.175-3.175" fill="#fff"/><path d="M215.29 388.3c0-1.755-1.42-3.176-3.174-3.176s-3.175 1.42-3.175 3.175c0 1.753 1.422 3.174 3.176 3.174 1.753 0 3.175-1.42 3.175-3.175z" fill="none" stroke="#2b2b2a" stroke-width=".693" stroke-miterlimit="10"/><path d="M241.388 388.3c0-1.755-1.422-3.176-3.175-3.176-1.754 0-3.175 1.42-3.175 3.175 0 1.753 1.42 3.174 3.175 3.174 1.753 0 3.175-1.42 3.175-3.175" fill="#fff"/><path d="M241.388 388.3c0-1.755-1.422-3.176-3.175-3.176-1.754 0-3.175 1.42-3.175 3.175 0 1.753 1.42 3.174 3.175 3.174 1.753 0 3.175-1.42 3.175-3.175z" fill="none" stroke="#2b2b2a" stroke-width=".693" stroke-miterlimit="10"/><path d="M267.484 388.3c0-1.755-1.422-3.176-3.175-3.176-1.755 0-3.176 1.42-3.176 3.175 0 1.753 1.42 3.174 3.175 3.174 1.752 0 3.174-1.42 3.174-3.175" fill="#fff"/><path d="M267.484 388.3c0-1.755-1.422-3.176-3.175-3.176-1.755 0-3.176 1.42-3.176 3.175 0 1.753 1.42 3.174 3.175 3.174 1.752 0 3.174-1.42 3.174-3.175z" fill="none" stroke="#2b2b2a" stroke-width=".693" stroke-miterlimit="10"/></g>
</svg>